<svg width="41" height="41" viewBox="0 0 41 41" fill="none" xmlns="http://www.w3.org/2000/svg">
<path fill-rule="evenodd" clip-rule="evenodd" d="M22.5417 10.2917C22.5417 9.75018 22.3266 9.23088 21.9437 8.84799C21.5608 8.4651 21.0415 8.25 20.5 8.25C19.9585 8.25 19.4392 8.4651 19.0563 8.84799C18.6734 9.23088 18.4583 9.75018 18.4583 10.2917V18.4583H10.2917C9.75018 18.4583 9.23088 18.6734 8.84799 19.0563C8.4651 19.4392 8.25 19.9585 8.25 20.5C8.25 21.0415 8.4651 21.5608 8.84799 21.9437C9.23088 22.3266 9.75018 22.5417 10.2917 22.5417H18.4583V30.7083C18.4583 31.2498 18.6734 31.7691 19.0563 32.152C19.4392 32.5349 19.9585 32.75 20.5 32.75C21.0415 32.75 21.5608 32.5349 21.9437 32.152C22.3266 31.7691 22.5417 31.2498 22.5417 30.7083V22.5417H30.7083C31.2498 22.5417 31.7691 22.3266 32.152 21.9437C32.5349 21.5608 32.75 21.0415 32.75 20.5C32.75 19.9585 32.5349 19.4392 32.152 19.0563C31.7691 18.6734 31.2498 18.4583 30.7083 18.4583H22.5417V10.2917Z" fill="black"/>
<path fill-rule="evenodd" clip-rule="evenodd" d="M0.083252 20.5C0.083252 9.22386 9.22379 0.083313 20.4999 0.083313C31.776 0.083313 40.9166 9.22386 40.9166 20.5C40.9166 31.7761 31.776 40.9166 20.4999 40.9166C9.22379 40.9166 0.083252 31.7761 0.083252 20.5ZM20.4999 4.16665C16.168 4.16665 12.0136 5.88748 8.95051 8.95057C5.88741 12.0137 4.16659 16.1681 4.16659 20.5C4.16659 24.8319 5.88741 28.9863 8.95051 32.0494C12.0136 35.1125 16.168 36.8333 20.4999 36.8333C24.8318 36.8333 28.9862 35.1125 32.0493 32.0494C35.1124 28.9863 36.8333 24.8319 36.8333 20.5C36.8333 16.1681 35.1124 12.0137 32.0493 8.95057C28.9862 5.88748 24.8318 4.16665 20.4999 4.16665Z" fill="black"/>
</svg>
